<svg width="1020" height="1020" viewBox="0 0 1020 1020" fill="none" xmlns="http://www.w3.org/2000/svg">
<path d="M409.887 309.179C410.793 288.295 427.994 271.829 448.905 271.829H569.382C590.293 271.829 607.493 288.294 608.401 309.178L625.52 703.427C626.024 715.009 621.353 726.214 612.771 734.012L535.413 804.301C520.517 817.837 497.77 817.837 482.875 804.299L405.53 734.01C396.951 726.214 392.281 715.011 392.783 703.431L409.887 309.179Z" fill="url(#paint0_linear_202_7)"/>
<path d="M370.752 283.881C351.921 265.056 361.816 232.842 387.97 227.825L503.864 205.595C507.997 204.802 512.242 204.802 516.375 205.595L632.268 227.825C658.423 232.842 668.317 265.056 649.487 283.881L533.593 399.739C520.629 412.699 499.61 412.699 486.646 399.739L370.752 283.881Z" fill="#BC1930"/>
<defs>
<linearGradient id="paint0_linear_202_7" x1="510.12" y1="205" x2="510.12" y2="829.86" gradientUnits="userSpaceOnUse">
<stop stop-color="#811423"/>
<stop offset="1" stop-color="#FF0000"/>
</linearGradient>
</defs>
</svg>
