<svg width="1566" height="1020" viewBox="0 0 1566 1020" fill="none" xmlns="http://www.w3.org/2000/svg">
<path d="M798.448 238C800.225 241.333 801.225 244.333 801.446 247C801.891 249.667 802.112 253.555 802.112 258.667V443.667C802.112 459 797.894 468 789.456 470.667C785.238 472 779.909 472.667 773.469 472.667C767.03 472.667 761.924 472.112 758.149 471C754.374 469.888 751.488 468.555 749.49 467C747.491 465.445 745.938 463.222 744.827 460.333C743.716 456.555 743.162 450.778 743.162 443V331.333C737.611 338.222 729.506 349.222 718.849 364.333C708.191 379.222 701.418 388.555 698.532 392.333C695.647 396.111 693.648 398.778 692.538 400.333C691.427 401.667 688.653 403.667 684.211 406.333C679.993 408.778 675.33 410 670.223 410C665.339 410 660.786 408.888 656.568 406.667C652.571 404.222 649.685 401.888 647.908 399.667L645.244 396C640.803 390.445 632.034 378.667 618.933 360.667C605.832 342.445 598.728 332.667 597.617 331.333V443.667C597.617 448.778 597.396 452.667 596.951 455.333C596.73 457.778 595.731 460.555 593.954 463.667C590.623 469.667 581.964 472.667 567.976 472.667C554.432 472.667 545.994 469.667 542.664 463.667C540.887 460.555 539.778 457.667 539.333 455C539.112 452.333 539 448.333 539 443V258C539 252.889 539.112 249.111 539.333 246.667C539.778 244 540.887 241 542.664 237.667C545.994 231.889 554.653 229 568.642 229C574.637 229 579.744 229.778 583.962 231.333C588.404 232.667 591.289 234.111 592.622 235.667L594.62 237.667L670.223 337C707.97 287 733.17 254 745.826 238C749.601 232 758.482 229 772.47 229C786.68 229 795.339 232 798.448 238ZM942.7 316C944.032 303.555 952.803 297.333 969.011 297.333C977.67 297.333 984.11 298 988.328 299.333C992.546 300.667 995.434 303 996.987 306.333C998.764 309.667 999.763 312.667 999.985 315.333C1000.43 317.778 1000.65 321.555 1000.65 326.667V443.333C1000.65 448.445 1000.43 452.333 999.985 455C999.763 457.445 998.874 460.333 997.32 463.667C994.211 469.445 986.551 472.333 974.34 472.333C962.35 472.333 954.245 470.888 950.027 468C946.03 464.888 943.699 460.445 943.033 454.667C934.818 466.445 921.051 472.333 901.734 472.333C882.638 472.333 864.877 463.555 848.446 446C832.014 428.445 823.8 408.112 823.8 385C823.8 361.667 832.014 341.333 848.446 324C865.098 306.445 883.305 297.667 903.066 297.667C910.615 297.667 917.499 299 923.716 301.667C929.932 304.333 934.262 306.889 936.705 309.333C939.148 311.555 941.146 313.778 942.7 316ZM882.084 385.333C882.084 392.667 884.97 399.333 890.743 405.333C896.517 411.112 903.511 414 911.726 414C919.94 414 926.713 411 932.042 405C937.592 399 940.368 392.445 940.368 385.333C940.368 378 937.704 371.222 932.375 365C927.268 358.778 920.273 355.667 911.393 355.667C902.733 355.667 895.628 358.778 890.077 365C884.748 371.222 882.084 378 882.084 385.333ZM1028.53 457.333C1024.31 454.667 1022.2 450.445 1022.2 444.667C1022.2 438.888 1026.42 430.112 1034.86 418.333C1037.3 414.555 1041.18 412.667 1046.51 412.667C1052.06 412.667 1059.5 415.445 1068.83 421C1078.15 426.333 1086.59 429 1094.14 429C1107.68 429 1114.46 426.333 1114.46 421C1114.46 416.778 1107.02 413.667 1092.14 411.667C1078.15 409.667 1064.28 404.445 1050.51 396C1044.07 392 1038.74 385.778 1034.52 377.333C1030.3 368.667 1028.19 358.445 1028.19 346.667C1028.19 311.555 1052.29 294 1100.47 294C1116.23 294 1132.44 297.778 1149.09 305.333C1156.86 308.889 1160.75 313.333 1160.75 318.667C1160.75 324 1158.31 330.555 1153.42 338.333C1148.54 346.111 1143.54 350 1138.44 350C1135.77 350 1130.77 348.333 1123.45 345C1116.34 341.667 1108.57 340 1100.13 340C1087.04 340 1080.48 342.445 1080.48 347.333C1080.48 354 1088.03 358.333 1103.13 360.333C1117.79 361.889 1132 366.111 1145.76 373C1152.2 376.111 1157.53 381.555 1161.75 389.333C1166.19 396.889 1168.41 406.445 1168.41 418C1168.41 429.555 1166.19 439.445 1161.75 447.667C1157.53 455.667 1151.54 461.667 1143.76 465.667C1129.55 472.555 1111.68 476 1090.14 476C1068.83 476 1048.29 469.778 1028.53 457.333ZM1304.05 316C1305.38 303.555 1314.15 297.333 1330.36 297.333C1339.02 297.333 1345.46 298 1349.68 299.333C1353.9 300.667 1356.78 303 1358.34 306.333C1360.11 309.667 1361.11 312.667 1361.33 315.333C1361.78 317.778 1362 321.555 1362 326.667V443.333C1362 448.445 1361.78 452.333 1361.33 455C1361.11 457.445 1360.22 460.333 1358.67 463.667C1355.56 469.445 1347.9 472.333 1335.69 472.333C1323.7 472.333 1315.6 470.888 1311.38 468C1307.38 464.888 1305.05 460.445 1304.38 454.667C1296.17 466.445 1282.4 472.333 1263.08 472.333C1243.99 472.333 1226.23 463.555 1209.79 446C1193.37 428.445 1185.15 408.112 1185.15 385C1185.15 361.667 1193.37 341.333 1209.79 324C1226.45 306.445 1244.66 297.667 1264.42 297.667C1271.97 297.667 1278.85 299 1285.06 301.667C1291.28 304.333 1295.61 306.889 1298.05 309.333C1300.5 311.555 1302.5 313.778 1304.05 316ZM1243.43 385.333C1243.43 392.667 1246.32 399.333 1252.09 405.333C1257.87 411.112 1264.86 414 1273.07 414C1281.29 414 1288.06 411 1293.39 405C1298.94 399 1301.72 392.445 1301.72 385.333C1301.72 378 1299.05 371.222 1293.72 365C1288.62 358.778 1281.62 355.667 1272.74 355.667C1264.08 355.667 1256.98 358.778 1251.43 365C1246.1 371.222 1243.43 378 1243.43 385.333Z" fill="white"/>
<path d="M253.155 309.445C254.062 288.507 271.276 272 292.204 272H412.779C433.708 272 450.921 288.506 451.83 309.443L468.963 704.693C469.467 716.304 464.793 727.538 456.203 735.356L378.783 805.823C363.874 819.393 341.109 819.393 326.202 805.821L248.794 735.354C240.208 727.538 235.534 716.306 236.037 704.697L253.155 309.445Z" fill="url(#paint0_linear_64_12)"/>
<path d="M213.777 284.09C194.898 265.215 204.818 232.915 231.039 227.885L347.229 205.596C351.372 204.801 355.628 204.801 359.771 205.596L475.961 227.885C502.182 232.915 512.102 265.215 493.224 284.09L377.033 400.254C364.036 413.249 342.964 413.249 329.967 400.254L213.777 284.09Z" fill="white"/>
<defs>
<linearGradient id="paint0_linear_64_12" x1="352.501" y1="272" x2="352.501" y2="829.753" gradientUnits="userSpaceOnUse">
<stop stop-color="#E4E4E4"/>
<stop offset="1" stop-color="white"/>
</linearGradient>
</defs>
</svg>
